<svg width="38" height="34" viewBox="0 0 38 34" fill="none" xmlns="http://www.w3.org/2000/svg">
<path d="M18.7928 30.6C18.9079 30.6 19.023 30.5717 19.1381 30.515C19.2532 30.4583 19.3395 30.4017 19.3971 30.345L33.5543 16.405C33.8996 16.065 34.1514 15.6825 34.3096 15.2575C34.4679 14.8325 34.547 14.4075 34.547 13.9825C34.547 13.5292 34.4679 13.0971 34.3096 12.6863C34.1514 12.2754 33.8996 11.9142 33.5543 11.6025L26.2167 4.3775C25.9002 4.0375 25.5333 3.78958 25.1161 3.63375C24.6989 3.47792 24.26 3.4 23.7996 3.4C23.368 3.4 22.9364 3.47792 22.5048 3.63375C22.0731 3.78958 21.6847 4.0375 21.3394 4.3775L20.8646 4.845L24.0586 8.0325C24.4902 8.42917 24.8068 8.8825 25.0082 9.3925C25.2096 9.9025 25.3103 10.4408 25.3103 11.0075C25.3103 12.1975 24.9003 13.1962 24.0802 14.0037C23.2601 14.8112 22.2458 15.215 21.0373 15.215C20.4618 15.215 19.9078 15.1158 19.3755 14.9175C18.8432 14.7192 18.3756 14.4217 17.9727 14.025L14.7356 10.88L7.18219 18.3175C7.09587 18.4025 7.03112 18.4946 6.98796 18.5938C6.9448 18.6929 6.92322 18.7992 6.92322 18.9125C6.92322 19.1392 7.00954 19.3446 7.18219 19.5288C7.35484 19.7129 7.55626 19.805 7.78646 19.805C7.90156 19.805 8.01666 19.7767 8.13176 19.72C8.24686 19.6633 8.33318 19.6067 8.39073 19.55L14.2608 13.77L16.6779 16.15L10.851 21.93C10.7647 22.015 10.6999 22.1071 10.6567 22.2062C10.6136 22.3054 10.592 22.4117 10.592 22.525C10.592 22.7517 10.6783 22.95 10.851 23.12C11.0236 23.29 11.225 23.375 11.4552 23.375C11.5703 23.375 11.6854 23.3467 11.8005 23.29C11.9156 23.2333 12.002 23.1767 12.0595 23.12L17.9296 17.3825L20.3467 19.7625L14.5198 25.5425C14.4334 25.5992 14.3687 25.6842 14.3255 25.7975C14.2824 25.9108 14.2608 26.0242 14.2608 26.1375C14.2608 26.3642 14.3471 26.5625 14.5198 26.7325C14.6924 26.9025 14.8938 26.9875 15.124 26.9875C15.2391 26.9875 15.347 26.9662 15.4478 26.9237C15.5485 26.8813 15.642 26.8175 15.7283 26.7325L21.5984 20.995L24.0154 23.375L18.1454 29.155C18.0591 29.24 17.9943 29.3321 17.9512 29.4312C17.908 29.5304 17.8864 29.6367 17.8864 29.75C17.8864 29.9767 17.9799 30.175 18.167 30.345C18.354 30.515 18.5626 30.6 18.7928 30.6ZM18.7497 34C17.685 34 16.7426 33.6529 15.9225 32.9587C15.1025 32.2646 14.6205 31.3933 14.4766 30.345C13.4983 30.2033 12.6782 29.8067 12.0164 29.155C11.3545 28.5033 10.9517 27.6958 10.8078 26.7325C9.82947 26.5908 9.01658 26.1871 8.36915 25.5212C7.72172 24.8554 7.32606 24.055 7.18219 23.12C6.08875 22.9783 5.19673 22.5108 4.50613 21.7175C3.81554 20.9242 3.47024 19.9892 3.47024 18.9125C3.47024 18.3458 3.57815 17.8004 3.79396 17.2762C4.00977 16.7521 4.3191 16.2917 4.72194 15.895L14.7356 6.0775L20.3898 11.645C20.4474 11.73 20.5337 11.7938 20.6488 11.8363C20.7639 11.8788 20.879 11.9 20.9941 11.9C21.2531 11.9 21.4689 11.8221 21.6415 11.6662C21.8142 11.5104 21.9005 11.305 21.9005 11.05C21.9005 10.9367 21.8789 10.8233 21.8358 10.71C21.7926 10.5967 21.7279 10.5117 21.6415 10.455L15.4693 4.3775C15.1528 4.0375 14.7859 3.78958 14.3687 3.63375C13.9515 3.47792 13.5126 3.4 13.0522 3.4C12.6206 3.4 12.189 3.47792 11.7574 3.63375C11.3258 3.78958 10.9373 4.0375 10.592 4.3775L4.50613 10.4125C4.24716 10.6675 4.03135 10.965 3.8587 11.305C3.68605 11.645 3.57095 11.985 3.5134 12.325C3.45585 12.665 3.45585 13.0121 3.5134 13.3663C3.57095 13.7204 3.68605 14.0533 3.8587 14.365L1.35529 16.83C0.866122 16.1783 0.506436 15.4629 0.276238 14.6838C0.0460397 13.9046 -0.0402847 13.1183 0.0172649 12.325C0.0748145 11.5317 0.276238 10.7596 0.621536 10.0087C0.966833 9.25792 1.44162 8.585 2.04589 7.99L8.13176 1.9975C8.82235 1.34583 9.59208 0.85 10.4409 0.51C11.2898 0.17 12.1602 0 13.0522 0C13.9443 0 14.8147 0.17 15.6636 0.51C16.5124 0.85 17.2678 1.34583 17.9296 1.9975L18.4044 2.465L18.8791 1.9975C19.5697 1.34583 20.3395 0.85 21.1883 0.51C22.0372 0.17 22.9076 0 23.7996 0C24.6917 0 25.5621 0.17 26.411 0.51C27.2598 0.85 28.0151 1.34583 28.677 1.9975L35.9714 9.18C36.6332 9.83167 37.1368 10.5825 37.4821 11.4325C37.8274 12.2825 38 13.1467 38 14.025C38 14.9033 37.8274 15.7604 37.4821 16.5963C37.1368 17.4321 36.6332 18.1758 35.9714 18.8275L21.8142 32.725C21.4113 33.1217 20.9437 33.4333 20.4114 33.66C19.8791 33.8867 19.3252 34 18.7497 34Z" fill="#536C8D"/>
</svg>
