<svg width="33" height="32" viewBox="0 0 33 32" fill="none" xmlns="http://www.w3.org/2000/svg">
<path d="M11.412 32L8.55896 27.12L3.12908 25.9333L3.66155 20.2533L0 16L3.66155 11.7467L3.12908 6.06667L8.55896 4.88L11.412 0L16.5 2.18L21.588 0L24.441 4.88L29.8709 6.06667L29.3384 11.7467L33 16L29.3384 20.2533L29.8709 25.9333L24.441 27.12L21.588 32L16.5 29.82L11.412 32ZM12.1416 29.78L16.5 27.94L20.8781 29.78L23.3366 25.62L28.0368 24.56L27.6096 19.64L30.7715 16L27.6096 12.34L28.0368 7.42001L23.3366 6.38001L20.8584 2.22001L16.5 4.06001L12.1219 2.22001L9.66335 6.38001L4.96316 7.42001L5.39045 12.34L2.2285 16L5.39045 19.64L4.96316 24.58L9.66335 25.62L12.1416 29.78ZM14.7054 20.9533L23.1789 12.36L21.9693 11.1133L14.7054 18.48L11.0307 14.7733L9.82111 16L14.7054 20.9533Z" fill="#B9C7E4"/>
</svg>
