<svg width="32" height="31" viewBox="0 0 32 31" fill="none" xmlns="http://www.w3.org/2000/svg">
<path d="M6.22222 19.0608H18.6667V17.2455H6.22222V19.0608ZM6.22222 13.6149H25.7778V11.7995H6.22222V13.6149ZM6.22222 8.16893H25.7778V6.3536H6.22222V8.16893ZM0 31V2.93243C0 2.09692 0.274074 1.39931 0.822223 0.839582C1.37037 0.279861 2.05356 0 2.8718 0H29.1282C29.9464 0 30.6296 0.279861 31.1778 0.839582C31.7259 1.39931 32 2.09692 32 2.93243V22.482C32 23.3175 31.7259 24.0151 31.1778 24.5748C30.6296 25.1345 29.9464 25.4144 29.1282 25.4144H5.47009L0 31ZM4.71111 23.5991H29.1282C29.4017 23.5991 29.6524 23.4827 29.8803 23.25C30.1083 23.0173 30.2222 22.7613 30.2222 22.482V2.93243C30.2222 2.65316 30.1083 2.39715 29.8803 2.16442C29.6524 1.93169 29.4017 1.81532 29.1282 1.81532H2.8718C2.59829 1.81532 2.34758 1.93169 2.11967 2.16442C1.89175 2.39715 1.77779 2.65316 1.77779 2.93243V26.5839L4.71111 23.5991ZM1.77779 23.5991V2.93243V22.482C1.77779 22.7613 1.77779 23.0173 1.77779 23.25C1.77779 23.4827 1.77779 23.5991 1.77779 23.5991Z" fill="#B9C7E4"/>
</svg>
