<svg width="21" height="18" viewBox="0 0 21 18" fill="none" xmlns="http://www.w3.org/2000/svg">
<path d="M9.7028 16.9615C9.83356 16.9615 9.96754 16.9321 10.1047 16.8731C10.2419 16.8141 10.3528 16.7423 10.4374 16.6577L18.2336 8.86154C18.4848 8.61026 18.6788 8.35321 18.8153 8.09039C18.9518 7.82757 19.0201 7.53911 19.0201 7.22501C19.0201 6.90706 18.9518 6.5984 18.8153 6.29905C18.6788 5.99969 18.4848 5.72629 18.2336 5.47885L14.4836 1.72885C14.2361 1.47757 13.982 1.29327 13.7211 1.17597C13.4602 1.05866 13.1707 1.00001 12.8528 1.00001C12.5387 1.00001 12.247 1.05866 11.9778 1.17597C11.7086 1.29327 11.4547 1.47757 11.2163 1.72885L10.3451 2.6L12.1951 4.45577C12.3938 4.65064 12.5419 4.87244 12.6393 5.12116C12.7368 5.36987 12.7855 5.62244 12.7855 5.87885C12.7855 6.39936 12.6153 6.82981 12.2749 7.1702C11.9345 7.51058 11.5041 7.68078 10.9836 7.68078C10.7272 7.68078 10.4768 7.64167 10.2326 7.56347C9.98837 7.48526 9.76882 7.34872 9.57395 7.15385L7.66049 5.24616L3.34318 9.56347C3.2419 9.66475 3.16594 9.77981 3.11529 9.90866C3.06465 10.0375 3.03933 10.1673 3.03933 10.2981C3.03933 10.534 3.11497 10.7285 3.26626 10.8817C3.41754 11.0349 3.61113 11.1115 3.84702 11.1115C3.97779 11.1115 4.11177 11.0821 4.24895 11.0231C4.38612 10.9641 4.49702 10.8923 4.58164 10.8077L7.75087 7.63846L8.45856 8.34616L5.2951 11.5154C5.19382 11.6167 5.11786 11.7317 5.06722 11.8606C5.01658 11.9894 4.99126 12.1192 4.99126 12.25C4.99126 12.4731 5.0701 12.6635 5.2278 12.8212C5.38549 12.9789 5.57587 13.0577 5.79895 13.0577C5.92972 13.0577 6.06369 13.0282 6.20087 12.9692C6.33805 12.9103 6.44895 12.8385 6.53356 12.7539L9.93356 9.35962L10.6413 10.0673L7.24703 13.4673C7.15857 13.5519 7.08581 13.6628 7.02876 13.8C6.97171 13.9372 6.94318 14.0712 6.94318 14.2019C6.94318 14.425 7.02203 14.6154 7.17972 14.7731C7.33741 14.9308 7.5278 15.0096 7.75087 15.0096C7.88164 15.0096 8.01145 14.9843 8.14029 14.9337C8.26914 14.883 8.3842 14.8071 8.48548 14.7058L11.8855 11.3115L12.5932 12.0192L9.19318 15.4192C9.0919 15.5205 9.01594 15.642 8.9653 15.7837C8.91466 15.9253 8.88934 16.0551 8.88934 16.1731C8.88934 16.409 8.97235 16.5994 9.13837 16.7442C9.3044 16.8891 9.49254 16.9615 9.7028 16.9615ZM9.69703 17.9616C9.18292 17.9616 8.74286 17.7734 8.37683 17.3971C8.01081 17.0208 7.85023 16.5564 7.8951 16.0039C7.32843 16.0103 6.85664 15.841 6.47971 15.4962C6.10279 15.1513 5.92394 14.6699 5.94317 14.0519C5.32523 14.0583 4.83837 13.8817 4.4826 13.5221C4.12683 13.1625 3.96497 12.6885 3.99702 12.1C3.44061 12.1064 2.97522 11.95 2.60087 11.6308C2.22651 11.3115 2.03933 10.8673 2.03933 10.2981C2.03933 10.0417 2.08901 9.78494 2.18837 9.52789C2.28772 9.27084 2.43484 9.04488 2.62971 8.85L7.66049 3.825L10.2432 6.40769C10.3278 6.49616 10.4323 6.56891 10.5566 6.62596C10.681 6.68301 10.8214 6.71154 10.9778 6.71154C11.1919 6.71154 11.381 6.63686 11.5451 6.4875C11.7092 6.33814 11.7913 6.14359 11.7913 5.90385C11.7913 5.74744 11.7627 5.60706 11.7057 5.4827C11.6486 5.35834 11.5759 5.25385 11.4874 5.16924L8.04702 1.72885C7.79959 1.47757 7.54222 1.29327 7.27491 1.17597C7.0076 1.05866 6.71497 1.00001 6.39703 1.00001C6.08292 1.00001 5.79767 1.05866 5.54126 1.17597C5.28485 1.29327 5.031 1.47757 4.77972 1.72885L1.73549 4.77885C1.52138 4.99296 1.34831 5.24808 1.21626 5.54424C1.08421 5.84039 1.01433 6.14616 1.00664 6.46154C0.998948 6.68718 1.01818 6.90417 1.06433 7.1125C1.11049 7.32084 1.18356 7.51667 1.28356 7.7L0.525867 8.4577C0.357917 8.18975 0.226507 7.8811 0.131635 7.53174C0.0367627 7.18238 -0.00682705 6.82565 0.000865417 6.46154C0.00855788 6.0077 0.0995837 5.57276 0.273943 5.15674C0.448302 4.74071 0.697661 4.37052 1.02202 4.04616L4.04702 1.02115C4.39574 0.676283 4.76465 0.419873 5.15376 0.251924C5.54286 0.0839747 5.96369 0 6.41626 0C6.86882 0 7.28645 0.0839747 7.66914 0.251924C8.05184 0.419873 8.41562 0.676283 8.76049 1.02115L9.63164 1.89231L10.5028 1.02115C10.8515 0.676283 11.2172 0.419873 11.5999 0.251924C11.9826 0.0839747 12.4002 0 12.8528 0C13.3054 0 13.7262 0.0839747 14.1153 0.251924C14.5044 0.419873 14.8714 0.676283 15.2163 1.02115L18.9413 4.74616C19.2861 5.09103 19.5522 5.47821 19.7393 5.9077C19.9265 6.33719 20.0201 6.77821 20.0201 7.23078C20.0201 7.68334 19.9265 8.10097 19.7393 8.48366C19.5522 8.86635 19.2861 9.23014 18.9413 9.57501L11.1451 17.3654C10.9374 17.5731 10.7115 17.7244 10.4672 17.8192C10.223 17.9141 9.96626 17.9616 9.69703 17.9616Z" fill="#B9C7E4"/>
</svg>
