<svg width="23" height="20" viewBox="0 0 23 20" fill="none" xmlns="http://www.w3.org/2000/svg">
<path d="M0 12.5V10H8.94444V12.5H0ZM0 7.5V5H14.0556V7.5H0ZM0 2.5V0H14.0556V2.5H0ZM11.5 20V16.1562L18.5597 9.28125C18.7514 9.09375 18.9644 8.95833 19.1986 8.875C19.4329 8.79167 19.6671 8.75 19.9014 8.75C20.1569 8.75 20.4018 8.79688 20.6361 8.89063C20.8704 8.98438 21.0833 9.125 21.275 9.3125L22.4569 10.4688C22.6273 10.6563 22.7604 10.8646 22.8562 11.0938C22.9521 11.3229 23 11.5521 23 11.7812C23 12.0104 22.9574 12.2448 22.8722 12.4844C22.787 12.724 22.6486 12.9375 22.4569 13.125L15.4292 20H11.5ZM13.4167 18.125H14.6306L18.4958 14.3125L17.9208 13.7188L17.3139 13.1562L13.4167 16.9375V18.125ZM17.9208 13.7188L17.3139 13.1562L18.4958 14.3125L17.9208 13.7188Z" fill="#B7A58A"/>
</svg>
