<svg width="18" height="23" viewBox="0 0 18 23" fill="none" xmlns="http://www.w3.org/2000/svg">
<path d="M8.8702 10.9135C9.42949 10.9135 9.90586 10.7168 10.2993 10.3233C10.6927 9.9299 10.8894 9.45353 10.8894 8.89424C10.8894 8.33494 10.6927 7.85858 10.2993 7.46515C9.90586 7.07172 9.42949 6.875 8.8702 6.875C8.3109 6.875 7.83454 7.07172 7.44111 7.46515C7.04768 7.85858 6.85097 8.33494 6.85097 8.89424C6.85097 9.45353 7.04768 9.9299 7.44111 10.3233C7.83454 10.7168 8.3109 10.9135 8.8702 10.9135ZM8.8702 20.8462C11.2196 18.8013 13.0769 16.7216 14.4423 14.607C15.8077 12.4924 16.4904 10.6635 16.4904 9.1202C16.4904 6.83334 15.7664 4.94592 14.3185 3.45794C12.8706 1.96996 11.0545 1.22597 8.8702 1.22597C6.6859 1.22597 4.8698 1.96996 3.42188 3.45794C1.97397 4.94592 1.25001 6.83334 1.25001 9.1202C1.25001 10.6635 1.9327 12.4924 3.29808 14.607C4.66347 16.7216 6.52084 18.8013 8.8702 20.8462ZM8.8702 22.5241C5.9327 19.9263 3.71995 17.5036 2.23197 15.256C0.743991 13.0084 0 10.9631 0 9.1202C0 6.47597 0.860978 4.29487 2.58294 2.57692C4.30489 0.858974 6.40065 0 8.8702 0C11.3398 0 13.4355 0.858974 15.1575 2.57692C16.8794 4.29487 17.7404 6.47597 17.7404 9.1202C17.7404 10.9631 16.9964 13.0084 15.5084 15.256C14.0204 17.5036 11.8077 19.9263 8.8702 22.5241Z" fill="#B9C7E4"/>
</svg>
