<svg width="128" height="115" viewBox="0 0 128 115" fill="none" xmlns="http://www.w3.org/2000/svg">
<path d="M0 115V0H64V25.5556H128V115H0ZM12.8 102.222H25.6V89.4444H12.8V102.222ZM12.8 76.6667H25.6V63.8889H12.8V76.6667ZM12.8 51.1111H25.6V38.3333H12.8V51.1111ZM12.8 25.5556H25.6V12.7778H12.8V25.5556ZM38.4 102.222H51.2V89.4444H38.4V102.222ZM38.4 76.6667H51.2V63.8889H38.4V76.6667ZM38.4 51.1111H51.2V38.3333H38.4V51.1111ZM38.4 25.5556H51.2V12.7778H38.4V25.5556ZM64 102.222H115.2V38.3333H64V51.1111H76.8V63.8889H64V76.6667H76.8V89.4444H64V102.222ZM89.6 63.8889V51.1111H102.4V63.8889H89.6ZM89.6 89.4444V76.6667H102.4V89.4444H89.6Z" fill="#536C8D"/>
</svg>
