<svg width="56" height="62" viewBox="0 0 56 62" fill="none" xmlns="http://www.w3.org/2000/svg">
<path d="M29.8898 34.0395L35.5211 38.7994C37.4483 37.4348 38.9924 35.5978 40.0052 33.4648C41.018 31.3318 41.4657 28.9743 41.3051 26.6186C41.1445 24.2628 40.381 21.9879 39.088 20.0121C37.795 18.0362 36.016 16.4258 33.9214 15.3353C31.8268 14.2448 29.4871 13.7108 27.1267 13.7846C24.7664 13.8583 22.4645 14.5374 20.4422 15.7566C18.4198 16.9758 16.7448 18.6942 15.5778 20.7469C14.4108 22.7997 13.791 25.1178 13.7778 27.479V48.2233H20.664V39.7662L30.4212 48.024L30.65 48.2233H41.3224L37.9789 45.3969L32.2146 40.5189L23.2916 32.9769L23.0775 32.7924H23.0332C22.2995 32.147 21.7124 31.3521 21.3114 30.4611C20.9104 29.5701 20.7049 28.6036 20.7083 27.6266C20.7076 27.2133 20.7446 26.8008 20.819 26.3942C21.0341 25.2036 21.5589 24.0906 22.3405 23.167C23.1222 22.2435 24.1331 21.5419 25.2719 21.1328C26.4106 20.7237 27.637 20.6216 28.8277 20.8366C30.0185 21.0516 31.1318 21.5762 32.0555 22.3578C32.9792 23.1393 33.6809 24.1501 34.09 25.2887C34.4992 26.4273 34.6015 27.6535 34.3865 28.8442C34.1715 30.0348 33.6469 31.1478 32.8653 32.0715C32.0837 32.9951 31.0728 33.6968 29.9341 34.1059" fill="#F6F4EF"/>
<path d="M51.4208 13.7886C48.3899 8.53232 43.7084 4.42353 38.1028 2.10005C32.4973 -0.223428 26.2814 -0.631604 20.4202 0.938885C14.5589 2.50937 9.38011 5.97067 5.68774 10.7855C1.99537 15.6002 -0.00398482 21.4991 5.96274e-06 27.5665V62H55.1111V27.5665C55.1186 22.7287 53.8454 17.9751 51.4208 13.7886ZM48.2177 48.2295V55.1148H6.88619V27.5665C6.88619 22.0863 9.0634 16.8305 12.939 12.9554C16.8146 9.08036 22.071 6.90336 27.5519 6.90336C33.0328 6.90336 38.2891 9.08036 42.1647 12.9554C46.0403 16.8305 48.2177 22.0863 48.2177 27.5665V48.2295Z" fill="#F6F4EF"/>
</svg>
