<svg width="32" height="30" viewBox="0 0 32 30" fill="none" xmlns="http://www.w3.org/2000/svg">
<path d="M25.1975 9.30818L23.7111 6.13837L20.5366 4.65409L23.7111 3.16981L25.1975 0L26.684 3.16981L29.8585 4.65409L26.684 6.13837L25.1975 9.30818ZM28.4728 21.2579L27.3441 18.8629L24.9456 17.7358L27.3441 16.6088L28.4728 14.2138L29.6015 16.6088L32 17.7358L29.6015 18.8629L28.4728 21.2579ZM8.63222 30L8.20392 26.6604C7.80199 26.506 7.37136 26.3003 6.91203 26.0431C6.45269 25.7858 6.0603 25.4948 5.73488 25.1698L2.63597 26.5346L0 21.9371L2.72414 19.9623C2.64016 19.5346 2.59817 19.065 2.59817 18.5535C2.59817 18.0419 2.64016 17.5723 2.72414 17.1447L0 15.1698L2.63597 10.5723L5.73488 11.9371C6.0603 11.6121 6.45269 11.3211 6.91203 11.0639C7.37136 10.8066 7.80199 10.6009 8.20392 10.4465L8.63222 7.10691H13.9231L14.3514 10.4465C14.7533 10.6009 15.1839 10.8066 15.6432 11.0639C16.1026 11.3211 16.495 11.6121 16.8204 11.9371L19.9193 10.5723L22.5553 15.1698L19.8311 17.1447C19.9151 17.5723 19.9571 18.0419 19.9571 18.5535C19.9571 19.065 19.9151 19.5346 19.8311 19.9623L22.5553 21.9371L19.9193 26.5346L16.8204 25.1698C16.495 25.4948 16.1026 25.7858 15.6432 26.0431C15.1839 26.3003 14.7533 26.506 14.3514 26.6604L13.9231 30H8.63222ZM11.2702 22.5786C12.3879 22.5786 13.3404 22.188 14.1278 21.4068C14.9151 20.6255 15.3087 19.6769 15.3087 18.5609C15.3087 17.4448 14.9175 16.4937 14.1352 15.7075C13.3528 14.9214 12.4027 14.5283 11.285 14.5283C10.1674 14.5283 9.21485 14.9189 8.42752 15.7001C7.6402 16.4814 7.24653 17.43 7.24653 18.5461C7.24653 19.6621 7.63773 20.6132 8.42011 21.3994C9.2025 22.1855 10.1525 22.5786 11.2702 22.5786ZM10.0494 28.3648H12.5059L12.8334 25.4214C13.6249 25.2033 14.3004 24.924 14.86 24.5833C15.4195 24.2427 15.9722 23.7862 16.5181 23.2138L19.2202 24.4402L20.4295 22.3333L17.9919 20.5975C18.2313 19.9706 18.351 19.2893 18.351 18.5535C18.351 17.8176 18.2313 17.1363 17.9919 16.5094L20.3665 14.7107L19.2202 12.6667L16.5181 13.8931C15.9722 13.3208 15.4195 12.8643 14.86 12.5236C14.3004 12.1829 13.6249 11.9036 12.8334 11.6855L12.5059 8.74214H10.0494L9.72189 11.6855C8.93036 11.9036 8.25484 12.1829 7.69531 12.5236C7.13579 12.8643 6.58309 13.3208 6.03721 13.8931L3.33512 12.6667L2.18877 14.7107L4.56334 16.5094C4.32399 17.1363 4.20275 17.8176 4.1996 18.5535C4.19645 19.2893 4.3177 19.9706 4.56334 20.5975L2.12579 22.3333L3.33512 24.4402L6.03721 23.2138C6.58309 23.7862 7.13579 24.2427 7.69531 24.5833C8.25484 24.924 8.93036 25.2033 9.72189 25.4214L10.0494 28.3648Z" fill="#B9C7E4"/>
</svg>
